<?xml version="1.0" standalone="no"?>
<!DOCTYPE svg PUBLIC "-//W3C//DTD SVG 20010904//EN"
 "http://www.w3.org/TR/2001/REC-SVG-20010904/DTD/svg10.dtd">
<svg version="1.0" xmlns="http://www.w3.org/2000/svg"
 width="600.000000pt" height="600.000000pt" viewBox="0 0 600.000000 600.000000"
 preserveAspectRatio="xMidYMid meet">
<metadata>
Created by potrace 1.11, written by Peter Selinger 2001-2013
</metadata>
<g transform="translate(0.000000,600.000000) scale(0.100000,-0.100000)"
fill="#000000" stroke="none">
<path d="M371 5989 c-72 -14 -168 -65 -226 -120 -63 -60 -119 -163 -135 -248
-14 -75 -14 -5169 0 -5242 35 -182 188 -335 369 -369 75 -14 5169 -14 5242 0
182 35 335 188 369 369 14 74 14 5168 0 5242 -34 181 -187 334 -369 369 -67
13 -5185 12 -5250 -1z m4539 -419 c377 -47 664 -242 815 -555 52 -107 78 -185
107 -320 19 -87 22 -131 22 -340 0 -260 -11 -340 -70 -521 -78 -239 -269 -536
-551 -857 -201 -229 -233 -309 -249 -625 l-7 -142 -315 0 -315 0 6 162 c10
251 40 390 112 508 51 83 157 219 258 328 143 154 362 495 428 666 55 143 72
249 73 456 0 191 -8 263 -46 380 -65 205 -197 326 -383 353 -237 34 -450 -112
-529 -363 -20 -63 -46 -223 -46 -285 0 -13 -38 -15 -315 -15 l-315 0 0 59 c0
94 27 280 55 376 115 398 426 664 850 729 110 17 301 20 415 6z m-4080 -1550
l0 -111 30 22 c37 28 104 30 148 4 51 -30 62 -74 62 -240 l0 -145 -55 0 -55 0
0 138 c0 156 -9 182 -61 182 -67 0 -69 -5 -69 -170 l0 -150 -55 0 -55 0 0 290
0 290 55 0 55 0 0 -110z m1490 -180 l0 -290 -50 0 c-44 0 -50 3 -50 20 0 20 0
20 -30 -2 -39 -29 -120 -29 -159 -1 -51 39 -66 79 -66 178 0 106 24 163 78
191 42 22 106 22 140 0 l27 -18 0 106 0 106 55 0 55 0 0 -290z m200 250 l0
-40 -55 0 -55 0 0 40 0 40 55 0 55 0 0 -40z m430 -250 l0 -290 -50 0 c-44 0
-50 3 -50 20 0 20 0 20 -30 -2 -39 -29 -120 -29 -159 -1 -51 39 -66 79 -66
178 0 106 24 163 78 191 42 22 106 22 140 0 l27 -18 0 106 0 106 55 0 55 0 0
-290z m200 250 l0 -40 -55 0 -55 0 0 40 0 40 55 0 55 0 0 -40z m1450 -125 c0
-196 6 -203 72 -90 l43 75 63 0 c48 0 61 -3 56 -12 -4 -7 -32 -48 -62 -91
l-54 -78 71 -109 70 -110 -64 0 -63 0 -53 85 c-28 47 -58 85 -65 85 -11 0 -14
-20 -14 -85 l0 -85 -55 0 -55 0 0 290 0 290 55 0 55 0 0 -165z m-3185 -34 c43
-24 67 -72 73 -146 l5 -65 -122 0 c-115 0 -121 -1 -121 -20 0 -12 11 -32 25
-45 28 -29 85 -33 140 -11 33 14 34 14 44 -16 16 -45 15 -47 -26 -65 -51 -21
-159 -21 -199 0 -77 40 -116 139 -94 239 11 55 47 110 83 130 57 31 137 30
192 -1z m433 2 c42 -26 52 -70 52 -233 l0 -150 -55 0 -55 0 0 142 c0 158 -7
178 -64 178 -62 -1 -66 -11 -66 -174 l0 -146 -55 0 -55 0 0 200 0 200 50 0
c43 0 50 -3 50 -20 0 -25 5 -25 38 -1 15 10 36 21 47 24 29 7 86 -3 113 -20z
m2213 1 c133 -68 130 -301 -5 -371 -42 -22 -131 -21 -179 2 -108 51 -132 249
-41 341 52 52 154 65 225 28z m375 18 c7 -4 9 -24 5 -52 -6 -44 -7 -45 -46
-48 -64 -5 -65 -9 -65 -163 l0 -139 -55 0 -55 0 0 200 0 200 50 0 c43 0 50 -3
50 -20 0 -24 13 -26 31 -4 22 27 64 40 85 26z m-4179 -122 c13 -63 25 -119 27
-125 3 -9 19 40 61 188 16 56 17 57 54 57 l37 0 34 -120 c19 -66 37 -120 40
-120 3 0 16 54 30 120 l23 120 53 0 52 0 -51 -200 -50 -200 -47 0 -47 0 -34
115 c-19 63 -37 115 -40 115 -3 0 -21 -52 -40 -115 l-34 -115 -47 0 c-27 0
-48 2 -48 5 0 5 -85 339 -96 378 -5 16 0 18 47 15 l53 -3 23 -115z m2263 -80
l0 -200 -55 0 -55 0 0 200 0 200 55 0 55 0 0 -200z m630 0 l0 -200 -55 0 -55
0 0 200 0 200 55 0 55 0 0 -200z m187 80 c13 -63 25 -119 27 -125 3 -9 19 40
61 188 16 56 17 57 54 57 l37 0 34 -120 c19 -66 37 -120 40 -120 3 0 16 54 30
120 l23 120 53 0 52 0 -51 -200 -50 -200 -47 0 -47 0 -34 115 c-19 63 -37 115
-40 115 -3 0 -21 -52 -40 -115 l-34 -115 -47 0 c-27 0 -48 2 -48 5 0 5 -85
339 -96 378 -5 16 0 18 47 15 l53 -3 23 -115z m-1826 -1517 l0 -68 16 33 c14
27 22 32 50 32 36 0 36 -1 1 -53 -20 -27 -20 -27 6 -71 14 -25 26 -47 26 -50
0 -3 -13 -6 -30 -6 -24 0 -33 7 -49 38 l-20 37 -1 -37 c0 -35 -2 -38 -30 -38
l-30 0 0 125 0 125 30 0 30 0 1 -67z m1570 0 l0 -68 16 33 c14 27 22 32 50 32
36 0 36 -1 1 -53 -20 -27 -20 -27 6 -71 14 -25 26 -47 26 -50 0 -3 -13 -6 -30
-6 -24 0 -33 7 -49 38 l-20 37 -1 -37 c0 -35 -2 -38 -30 -38 l-30 0 0 125 0
125 30 0 30 0 1 -67z m-2131 37 c0 -16 -7 -20 -35 -20 l-35 0 0 -100 0 -100
-30 0 -30 0 0 100 0 100 -35 0 c-28 0 -35 4 -35 20 0 19 7 20 100 20 93 0 100
-1 100 -20z m70 -52 c0 -9 3 -9 12 0 20 20 38 14 38 -13 0 -18 -5 -25 -20 -25
-18 0 -20 -7 -20 -65 l0 -65 -30 0 -30 0 0 90 c0 89 0 90 25 90 14 0 25 -5 25
-12z m206 -9 c13 -15 20 -40 22 -88 l4 -68 -66 0 c-73 0 -96 12 -96 52 0 29
34 55 72 55 28 0 37 13 17 26 -6 3 -16 1 -22 -5 -16 -16 -57 -14 -57 3 0 43
93 61 126 25z m172 5 c29 -20 29 -54 1 -54 -11 0 -27 7 -36 15 -21 22 -33 10
-33 -35 0 -44 17 -61 35 -37 7 10 22 17 34 17 28 0 28 -34 -1 -54 -57 -40
-128 1 -128 74 0 73 71 114 128 74z m362 -31 l13 -48 14 48 c13 42 17 47 44
47 16 0 29 -1 29 -3 0 -2 -16 -50 -35 -107 -38 -113 -56 -140 -92 -140 -29 0
-31 26 -3 48 21 17 21 17 -10 106 -16 50 -30 91 -30 93 0 2 13 3 29 3 26 0 30
-5 41 -47z m255 22 c56 -55 18 -155 -60 -155 -51 0 -85 36 -85 90 0 54 34 90
85 90 25 0 44 -8 60 -25z m105 -38 c0 -68 4 -79 26 -70 10 4 14 23 14 69 l0
64 30 0 30 0 0 -89 0 -89 -62 0 c-88 1 -98 12 -98 105 l0 73 30 0 30 0 0 -63z
m180 51 c0 -9 3 -9 12 0 20 20 38 14 38 -13 0 -18 -5 -25 -20 -25 -18 0 -20
-7 -20 -65 l0 -65 -30 0 -30 0 0 90 c0 89 0 90 25 90 14 0 25 -5 25 -12z m205
-40 c4 -29 9 -48 11 -43 1 6 8 29 14 53 16 62 43 58 62 -10 l14 -53 8 53 c7
48 10 52 35 52 l28 0 -21 -90 c-19 -87 -21 -91 -46 -88 -20 2 -27 11 -34 41
-5 20 -13 37 -17 37 -4 0 -11 -17 -16 -37 -7 -31 -14 -39 -34 -41 -22 -3 -27
2 -32 25 -3 15 -12 56 -21 91 l-14 62 28 0 c26 0 28 -4 35 -52z m330 27 c35
-34 35 -96 0 -130 -56 -56 -145 -16 -145 65 0 54 34 90 85 90 25 0 44 -8 60
-25z m105 13 c0 -9 3 -9 12 0 20 20 38 14 38 -13 0 -18 -5 -25 -20 -25 -18 0
-20 -7 -20 -65 l0 -65 -30 0 -30 0 0 90 c0 89 0 90 25 90 14 0 25 -5 25 -12z
m475 -13 c35 -34 35 -96 0 -130 -56 -56 -145 -16 -145 65 0 54 34 90 85 90 25
0 44 -8 60 -25z m105 13 c0 -9 3 -9 12 0 20 20 38 14 38 -13 0 -18 -5 -25 -20
-25 -18 0 -20 -7 -20 -65 l0 -65 -30 0 -30 0 0 90 c0 89 0 90 25 90 14 0 25
-5 25 -12z m-2720 -338 c0 -16 -7 -20 -30 -20 -23 0 -30 4 -30 20 0 16 7 20
30 20 23 0 30 -4 30 -20z m640 -20 c0 -31 3 -38 15 -34 8 4 26 3 40 0 28 -7
45 -54 45 -128 0 -47 -1 -48 -30 -48 l-30 0 0 64 c0 46 -4 65 -14 69 -22 9
-26 -2 -26 -70 l0 -63 -30 0 -30 0 0 125 0 125 30 0 c28 0 30 -2 30 -40z
m-190 -5 c0 -16 6 -25 15 -25 8 0 15 -9 15 -20 0 -11 -7 -20 -15 -20 -11 0
-15 -12 -15 -45 0 -31 5 -47 15 -51 8 -4 15 -15 15 -25 0 -14 -7 -19 -29 -19
-39 0 -54 21 -59 86 -2 30 -8 54 -13 54 -5 0 -9 9 -9 20 0 11 5 20 10 20 6 0
10 8 10 18 0 25 9 32 37 32 18 0 23 -5 23 -25z m-893 -33 c31 -21 42 -91 21
-137 -12 -26 -47 -41 -73 -31 -12 4 -15 -3 -15 -34 0 -38 -2 -40 -30 -40 l-30
0 0 124 0 124 59 0 c32 0 63 -3 68 -6z m113 -4 c0 -9 3 -9 12 0 20 20 38 14
38 -13 0 -18 -5 -25 -20 -25 -18 0 -20 -7 -20 -65 l0 -65 -30 0 -30 0 0 90 c0
89 0 90 25 90 14 0 25 -5 25 -12z m215 -13 c35 -34 35 -96 0 -130 -56 -56
-145 -16 -145 65 0 54 34 90 85 90 25 0 44 -8 60 -25z m115 -64 c0 -105 -13
-149 -46 -157 -13 -3 -31 -4 -39 0 -22 8 -18 33 5 39 18 5 20 14 20 106 l0
101 30 0 30 0 0 -89z m158 72 c11 -10 23 -32 27 -50 l6 -32 -57 -3 c-56 -3
-57 -4 -40 -21 13 -13 27 -16 46 -12 34 7 50 -19 20 -35 -32 -17 -77 -11 -107
14 -58 50 -22 156 53 156 17 0 41 -8 52 -17z m170 1 c29 -20 29 -54 1 -54 -11
0 -27 7 -36 15 -21 22 -33 10 -33 -35 0 -44 17 -61 35 -37 7 10 22 17 34 17
28 0 28 -34 -1 -54 -57 -40 -128 1 -128 74 0 73 71 114 128 74z m577 -9 c56
-55 18 -155 -60 -155 -51 0 -85 36 -85 90 0 54 34 90 85 90 25 0 44 -8 60 -25z
m105 -38 c0 -68 4 -79 26 -70 10 4 14 23 14 69 l0 64 30 0 30 0 0 -89 0 -89
-62 0 c-88 1 -98 12 -98 105 l0 73 30 0 30 0 0 -63z m180 51 c0 -9 3 -9 12 0
20 20 38 14 38 -13 0 -18 -5 -25 -20 -25 -18 0 -20 -7 -20 -65 l0 -65 -30 0
-30 0 0 90 c0 89 0 90 25 90 14 0 25 -5 25 -12z m208 -4 c45 -31 10 -62 -38
-32 -15 10 -22 10 -31 1 -10 -10 -8 -14 7 -19 74 -26 84 -33 84 -58 0 -52 -94
-77 -138 -36 -12 12 -22 25 -22 30 0 14 54 12 67 -1 7 -7 20 -8 30 -5 17 7 17
8 -1 22 -11 8 -28 14 -38 14 -10 0 -27 9 -38 20 -52 52 53 110 118 64z m267
-9 c56 -55 18 -155 -60 -155 -51 0 -85 36 -85 90 0 54 34 90 85 90 25 0 44 -8
60 -25z m95 13 c0 -9 3 -9 12 0 17 17 63 15 78 -3 7 -9 15 -49 18 -90 l5 -75
-31 0 -31 0 -3 68 c-2 52 -6 67 -18 67 -12 0 -16 -15 -18 -67 -3 -68 -3 -68
-32 -68 l-30 0 0 90 c0 89 0 90 25 90 14 0 25 -5 25 -12z m270 -35 l13 -48 14
48 c13 42 17 47 44 47 16 0 29 -1 29 -3 0 -2 -16 -50 -35 -107 -38 -113 -56
-140 -92 -140 -29 0 -31 26 -3 48 21 17 21 17 -10 106 -16 50 -30 91 -30 93 0
2 13 3 29 3 26 0 30 -5 41 -47z m255 22 c35 -34 35 -96 0 -130 -56 -56 -145
-16 -145 65 0 54 34 90 85 90 25 0 44 -8 60 -25z m105 -38 c0 -68 4 -79 26
-70 10 4 14 23 14 69 l0 64 30 0 30 0 0 -89 0 -89 -62 0 c-88 1 -98 12 -98
105 l0 73 30 0 30 0 0 -63z m180 51 c0 -9 3 -9 12 0 20 20 38 14 38 -13 0 -18
-5 -25 -20 -25 -18 0 -20 -7 -20 -65 l0 -65 -30 0 -30 0 0 90 c0 89 0 90 25
90 14 0 25 -5 25 -12z m295 -13 c35 -34 35 -96 0 -130 -56 -56 -145 -16 -145
65 0 54 34 90 85 90 25 0 44 -8 60 -25z m100 -27 c4 -29 9 -48 11 -43 1 6 8
29 14 53 16 62 43 58 62 -10 l14 -53 8 53 c7 48 10 52 35 52 l28 0 -21 -90
c-19 -87 -21 -91 -46 -88 -20 2 -27 11 -34 41 -5 20 -13 37 -17 37 -4 0 -11
-17 -16 -37 -7 -31 -14 -39 -34 -41 -22 -3 -27 2 -32 25 -3 15 -12 56 -21 91
l-14 62 28 0 c26 0 28 -4 35 -52z m235 40 c0 -9 3 -9 12 0 17 17 63 15 78 -3
7 -9 15 -49 18 -90 l5 -75 -31 0 -31 0 -3 68 c-2 52 -6 67 -18 67 -12 0 -16
-15 -18 -67 -3 -68 -3 -68 -32 -68 l-30 0 0 90 c0 89 0 90 25 90 14 0 25 -5
25 -12z m-2520 -443 l0 -125 -30 0 -30 0 0 125 0 125 30 0 30 0 0 -125z m740
0 l0 -125 -30 0 -30 0 0 125 0 125 30 0 30 0 0 -125z m540 0 l0 -125 -25 0
c-14 0 -25 5 -25 10 0 6 -7 6 -18 -1 -27 -17 -67 -4 -80 26 -35 76 12 165 73
141 12 -4 15 3 15 34 0 38 2 40 30 40 l30 0 0 -125z m940 0 l0 -125 -25 0
c-14 0 -25 5 -25 10 0 6 -7 6 -18 -1 -27 -17 -67 -4 -80 26 -35 76 12 165 73
141 12 -4 15 3 15 34 0 38 2 40 30 40 l30 0 0 -125z m-2915 90 c33 -32 32 -55
0 -55 -14 0 -28 6 -31 14 -8 21 -32 28 -55 16 -15 -9 -19 -22 -19 -70 0 -50 3
-61 21 -70 11 -7 27 -9 35 -6 19 7 18 46 -1 46 -8 0 -15 9 -15 20 0 17 7 20
45 20 l45 0 0 -49 c0 -59 -13 -72 -80 -79 -44 -4 -52 -2 -80 26 -27 27 -30 37
-30 92 0 55 3 65 29 91 39 39 100 41 136 4z m1140 0 c35 -34 32 -55 -5 -55
-19 0 -30 5 -30 14 0 20 -38 30 -55 16 -10 -8 -15 -32 -15 -70 0 -38 5 -62 15
-70 17 -14 55 -4 55 16 0 9 11 14 30 14 37 0 40 -21 5 -55 -36 -37 -97 -35
-136 4 -26 26 -29 36 -29 91 0 55 3 65 29 91 39 39 100 41 136 4z m3065 -310
l0 -315 -320 0 -320 0 0 315 0 315 320 0 320 0 0 -315z m-4005 250 c35 -34 35
-96 0 -130 -56 -56 -145 -16 -145 65 0 54 34 90 85 90 25 0 44 -8 60 -25z
m190 0 c35 -34 35 -96 0 -130 -56 -56 -145 -16 -145 65 0 54 34 90 85 90 25 0
44 -8 60 -25z m143 13 c9 -9 12 -9 12 0 0 7 11 12 25 12 l25 0 0 -100 c0 -94
-2 -103 -25 -125 -38 -39 -127 -31 -111 10 4 12 13 15 27 12 27 -7 49 1 49 19
0 8 -6 11 -15 8 -26 -10 -61 5 -73 31 -22 47 -11 116 22 137 17 12 51 9 64 -4z
m320 -5 c11 -10 23 -32 27 -50 l6 -32 -57 -3 c-56 -3 -57 -4 -40 -21 13 -13
27 -16 46 -12 34 7 50 -19 20 -35 -32 -17 -77 -11 -107 14 -58 50 -22 156 53
156 17 0 41 -8 52 -17z m468 -4 c13 -15 20 -40 22 -88 l4 -68 -66 0 c-73 0
-96 12 -96 52 0 29 34 55 72 55 28 0 37 13 17 26 -6 3 -16 1 -22 -5 -16 -16
-57 -14 -57 3 0 43 93 61 126 25z m272 4 c11 -10 23 -32 27 -50 l6 -32 -57 -3
c-56 -3 -57 -4 -40 -21 13 -13 27 -16 46 -12 34 7 50 -19 20 -35 -32 -17 -77
-11 -107 14 -58 50 -22 156 53 156 17 0 41 -8 52 -17z m92 5 c0 -9 3 -9 12 0
17 17 63 15 78 -3 7 -9 15 -49 18 -90 l5 -75 -31 0 -31 0 -3 68 c-2 52 -6 67
-18 67 -12 0 -16 -15 -18 -67 -3 -68 -3 -68 -32 -68 l-30 0 0 90 c0 89 0 90
25 90 14 0 25 -5 25 -12z m456 -9 c13 -15 20 -40 22 -88 l4 -68 -66 0 c-73 0
-96 12 -96 52 0 29 34 55 72 55 28 0 37 13 17 26 -6 3 -16 1 -22 -5 -16 -16
-57 -14 -57 3 0 43 93 61 126 25z m104 9 c0 -9 3 -9 12 0 20 20 38 14 38 -13
0 -18 -5 -25 -20 -25 -18 0 -20 -7 -20 -65 l0 -65 -30 0 -30 0 0 90 c0 89 0
90 25 90 14 0 25 -5 25 -12z m286 -9 c13 -15 20 -40 22 -88 l4 -68 -66 0 c-73
0 -96 12 -96 52 0 29 34 55 72 55 28 0 37 13 17 26 -6 3 -16 1 -22 -5 -16 -16
-57 -14 -57 3 0 43 93 61 126 25z m94 9 c0 -9 3 -9 12 0 17 17 63 15 78 -3 7
-9 15 -49 18 -90 l5 -75 -31 0 -31 0 -3 68 c-2 52 -6 67 -18 67 -12 0 -16 -15
-18 -67 -3 -68 -3 -68 -32 -68 l-30 0 0 90 c0 89 0 90 25 90 14 0 25 -5 25
-12z m-1200 -443 l0 -125 -25 0 c-14 0 -25 5 -25 10 0 6 -7 6 -18 -1 -27 -17
-67 -4 -80 26 -35 76 12 165 73 141 12 -4 15 3 15 34 0 38 2 40 30 40 l30 0 0
-125z m270 85 c0 -31 3 -38 15 -34 8 4 26 3 40 0 28 -7 45 -54 45 -128 0 -47
-1 -48 -30 -48 l-30 0 0 64 c0 46 -4 65 -14 69 -22 9 -26 -2 -26 -70 l0 -63
-30 0 -30 0 0 125 0 125 30 0 c28 0 30 -2 30 -40z m-1177 19 c25 -14 37 -28
37 -46 0 -19 -40 -16 -62 4 -15 13 -23 15 -36 6 -28 -17 -19 -35 23 -50 22 -7
48 -22 59 -32 25 -26 24 -71 -4 -93 -51 -42 -160 -6 -160 53 0 5 14 9 30 9 19
0 30 -5 30 -14 0 -17 27 -28 51 -21 34 11 20 35 -36 60 -58 25 -78 53 -65 90
14 39 87 58 133 34z m1857 -64 l0 -75 -30 0 -30 0 0 75 0 75 30 0 30 0 0 -75z
m-120 40 c0 -16 6 -25 15 -25 8 0 15 -9 15 -20 0 -11 -7 -20 -15 -20 -11 0
-15 -12 -15 -45 0 -31 5 -47 15 -51 8 -4 15 -15 15 -25 0 -14 -7 -19 -29 -19
-39 0 -54 21 -59 86 -2 30 -8 54 -13 54 -5 0 -9 9 -9 20 0 11 5 20 10 20 6 0
10 8 10 18 0 25 9 32 37 32 18 0 23 -5 23 -25z m-1533 -33 c31 -21 42 -91 21
-137 -12 -26 -47 -41 -73 -31 -12 4 -15 -3 -15 -34 0 -38 -2 -40 -30 -40 l-30
0 0 124 0 124 59 0 c32 0 63 -3 68 -6z m113 -4 c0 -9 3 -9 12 0 20 20 38 14
38 -13 0 -18 -5 -25 -20 -25 -18 0 -20 -7 -20 -65 l0 -65 -30 0 -30 0 0 90 c0
89 0 90 25 90 14 0 25 -5 25 -12z m208 -5 c11 -10 23 -32 27 -50 l6 -32 -57
-3 c-56 -3 -57 -4 -40 -21 13 -13 27 -16 46 -12 34 7 50 -19 20 -35 -32 -17
-77 -11 -107 14 -58 50 -22 156 53 156 17 0 41 -8 52 -17z m178 -4 c13 -15 20
-40 22 -88 l4 -68 -66 0 c-73 0 -96 12 -96 52 0 29 34 55 72 55 28 0 37 13 17
26 -6 3 -16 1 -22 -5 -16 -16 -57 -14 -57 3 0 43 93 61 126 25z m372 5 c45
-31 10 -62 -38 -32 -15 10 -22 10 -31 1 -10 -10 -8 -14 7 -19 74 -26 84 -33
84 -58 0 -52 -94 -77 -138 -36 -12 12 -22 25 -22 30 0 14 54 12 67 -1 7 -7 20
-8 30 -5 17 7 17 8 -1 22 -11 8 -28 14 -38 14 -10 0 -27 9 -38 20 -52 52 53
110 118 64z m360 -1 c11 -10 23 -32 27 -50 l6 -32 -57 -3 c-56 -3 -57 -4 -40
-21 13 -13 27 -16 46 -12 34 7 50 -19 20 -35 -32 -17 -77 -11 -107 14 -58 50
-22 156 53 156 17 0 41 -8 52 -17z m180 0 c11 -10 23 -32 27 -50 l6 -32 -57
-3 c-56 -3 -57 -4 -40 -21 13 -13 27 -16 46 -12 34 7 50 -19 20 -35 -32 -17
-77 -11 -107 14 -58 50 -22 156 53 156 17 0 41 -8 52 -17z m242 -143 c0 -16
-7 -20 -30 -20 -23 0 -30 4 -30 20 0 16 7 20 30 20 23 0 30 -4 30 -20z"/>
<path d="M2101 3851 c-38 -38 -41 -162 -6 -201 22 -24 62 -26 93 -4 20 14 22
24 22 104 0 80 -2 90 -22 104 -30 22 -64 20 -87 -3z"/>
<path d="M2731 3851 c-38 -38 -41 -162 -6 -201 22 -24 62 -26 93 -4 20 14 22
24 22 104 0 80 -2 90 -22 104 -30 22 -64 20 -87 -3z"/>
<path d="M1270 3848 c-11 -12 -20 -30 -20 -40 0 -16 9 -18 65 -18 56 0 65 3
65 18 0 56 -70 82 -110 40z"/>
<path d="M3932 3863 c-39 -16 -56 -137 -27 -193 29 -56 107 -53 131 5 26 64
12 165 -26 185 -20 10 -56 12 -78 3z"/>
<path d="M1150 2197 c0 -19 10 -27 26 -20 21 8 17 33 -6 33 -11 0 -20 -6 -20
-13z"/>
<path d="M1943 2263 c-8 -3 -13 -21 -13 -43 0 -21 5 -40 13 -42 25 -10 37 4
37 42 0 37 -12 51 -37 43z"/>
<path d="M2763 2263 c-8 -3 -13 -21 -13 -43 0 -21 5 -40 13 -42 25 -10 37 4
37 42 0 37 -12 51 -37 43z"/>
<path d="M3343 2263 c-8 -3 -13 -21 -13 -43 0 -21 5 -40 13 -42 25 -10 37 4
37 42 0 37 -12 51 -37 43z"/>
<path d="M294 1857 c-10 -28 0 -82 16 -82 11 0 15 12 15 44 0 44 -19 68 -31
38z"/>
<path d="M613 1863 c-8 -3 -13 -21 -13 -43 0 -21 5 -40 13 -42 25 -10 37 4 37
42 0 37 -12 51 -37 43z"/>
<path d="M890 1855 c-11 -13 -9 -15 15 -15 16 0 25 5 23 12 -7 19 -24 20 -38
3z"/>
<path d="M1633 1863 c-8 -3 -13 -21 -13 -43 0 -21 5 -40 13 -42 25 -10 37 4
37 42 0 37 -12 51 -37 43z"/>
<path d="M2393 1863 c-8 -3 -13 -21 -13 -43 0 -21 5 -40 13 -42 25 -10 37 4
37 42 0 37 -12 51 -37 43z"/>
<path d="M3013 1863 c-8 -3 -13 -21 -13 -43 0 -21 5 -40 13 -42 25 -10 37 4
37 42 0 37 -12 51 -37 43z"/>
<path d="M3593 1863 c-8 -3 -13 -21 -13 -43 0 -21 5 -40 13 -42 25 -10 37 4
37 42 0 37 -12 51 -37 43z"/>
<path d="M2664 1457 c-10 -28 0 -82 16 -82 11 0 15 12 15 44 0 44 -19 68 -31
38z"/>
<path d="M3604 1457 c-10 -28 0 -82 16 -82 11 0 15 12 15 44 0 44 -19 68 -31
38z"/>
<path d="M913 1463 c-8 -3 -13 -21 -13 -43 0 -21 5 -40 13 -42 25 -10 37 4 37
42 0 37 -12 51 -37 43z"/>
<path d="M1103 1463 c-8 -3 -13 -21 -13 -43 0 -21 5 -40 13 -42 25 -10 37 4
37 42 0 37 -12 51 -37 43z"/>
<path d="M1284 1457 c-10 -28 0 -82 16 -82 11 0 15 12 15 44 0 44 -19 68 -31
38z"/>
<path d="M1570 1455 c-11 -13 -9 -15 15 -15 16 0 25 5 23 12 -7 19 -24 20 -38
3z"/>
<path d="M2030 1397 c0 -19 10 -27 26 -20 21 8 17 33 -6 33 -11 0 -20 -6 -20
-13z"/>
<path d="M2310 1455 c-11 -13 -9 -15 15 -15 16 0 25 5 23 12 -7 19 -24 20 -38
3z"/>
<path d="M2850 1397 c0 -19 10 -27 26 -20 21 8 17 33 -6 33 -11 0 -20 -6 -20
-13z"/>
<path d="M3240 1397 c0 -19 10 -27 26 -20 21 8 17 33 -6 33 -11 0 -20 -6 -20
-13z"/>
<path d="M2114 1057 c-10 -28 0 -82 16 -82 11 0 15 12 15 44 0 44 -19 68 -31
38z"/>
<path d="M1444 1057 c-10 -28 0 -82 16 -82 11 0 15 12 15 44 0 44 -19 68 -31
38z"/>
<path d="M1760 1055 c-11 -13 -9 -15 15 -15 16 0 25 5 23 12 -7 19 -24 20 -38
3z"/>
<path d="M1930 997 c0 -19 10 -27 26 -20 21 8 17 33 -6 33 -11 0 -20 -6 -20
-13z"/>
<path d="M2670 1055 c-11 -13 -9 -15 15 -15 16 0 25 5 23 12 -7 19 -24 20 -38
3z"/>
<path d="M2850 1055 c-11 -13 -9 -15 15 -15 16 0 25 5 23 12 -7 19 -24 20 -38
3z"/>
</g>
</svg>
